<svg width="100%" viewBox="0 0 680 620" xmlns="http://www.w3.org/2000/svg" style="font-family: system-ui, -apple-system, sans-serif; background: #fff;">
<defs>
  <marker id="arrow" viewBox="0 0 10 10" refX="8" refY="5" markerWidth="6" markerHeight="6" orient="auto-start-reverse"><path d="M2 1L8 5L2 9" fill="none" stroke="context-stroke" stroke-width="1.5" stroke-linecap="round" stroke-linejoin="round"/></marker>
</defs>

<style>
  .th { font-size: 14px; font-weight: 500; fill: #2C2C2A; }
  .ts { font-size: 12px; font-weight: 400; fill: #5F5E5A; }
  .arr { stroke: #888780; stroke-width: 1.5; }
  .leader { stroke: #B4B2A9; stroke-width: 0.5; stroke-dasharray: 3 3; }
</style>

<!-- Title -->
<text class="th" x="340" y="30" text-anchor="middle">Zielarchitektur: Barrierefreiheits-Assistenzpipeline</text>

<!-- BWEC Client -->
<rect x="230" y="55" width="220" height="44" rx="8" fill="#F1EFE8" stroke="#5F5E5A" stroke-width="0.5"/>
<text class="th" x="340" y="77" text-anchor="middle" dominant-baseline="central">BWEC Client (React/TS)</text>

<!-- Three source arrows -->
<line x1="260" y1="99" x2="110" y2="145" class="arr" marker-end="url(#arrow)"/>
<line x1="340" y1="99" x2="340" y2="145" class="arr" marker-end="url(#arrow)"/>
<line x1="420" y1="99" x2="570" y2="145" class="arr" marker-end="url(#arrow)"/>

<!-- axe-core -->
<rect x="40" y="148" width="140" height="56" rx="8" fill="#E6F1FB" stroke="#185FA5" stroke-width="0.5"/>
<text x="110" y="168" text-anchor="middle" dominant-baseline="central" font-size="14" font-weight="500" fill="#0C447C">axe-core</text>
<text x="110" y="186" text-anchor="middle" dominant-baseline="central" font-size="12" fill="#185FA5">DOM-Analyse</text>

<!-- Playwright -->
<rect x="260" y="148" width="160" height="56" rx="8" fill="#E1F5EE" stroke="#0F6E56" stroke-width="0.5"/>
<text x="340" y="168" text-anchor="middle" dominant-baseline="central" font-size="14" font-weight="500" fill="#085041">Playwright</text>
<text x="340" y="186" text-anchor="middle" dominant-baseline="central" font-size="12" fill="#0F6E56">Interaktionstest</text>

<!-- grep -->
<rect x="500" y="148" width="140" height="56" rx="8" fill="#FAECE7" stroke="#993C1D" stroke-width="0.5"/>
<text x="570" y="168" text-anchor="middle" dominant-baseline="central" font-size="14" font-weight="500" fill="#712B13">grep</text>
<text x="570" y="186" text-anchor="middle" dominant-baseline="central" font-size="12" fill="#993C1D">Codekontext</text>

<!-- Arrows to normalizers -->
<line x1="110" y1="204" x2="110" y2="252" class="arr" marker-end="url(#arrow)"/>
<line x1="340" y1="204" x2="340" y2="252" class="arr" marker-end="url(#arrow)"/>
<line x1="570" y1="204" x2="570" y2="252" class="arr" marker-end="url(#arrow)"/>

<!-- Normalizers -->
<rect x="52" y="255" width="116" height="36" rx="6" fill="#F1EFE8" stroke="#5F5E5A" stroke-width="0.5"/>
<text class="ts" x="110" y="273" text-anchor="middle" dominant-baseline="central">Normalizer</text>
<rect x="282" y="255" width="116" height="36" rx="6" fill="#F1EFE8" stroke="#5F5E5A" stroke-width="0.5"/>
<text class="ts" x="340" y="273" text-anchor="middle" dominant-baseline="central">Normalizer</text>
<rect x="512" y="255" width="116" height="36" rx="6" fill="#F1EFE8" stroke="#5F5E5A" stroke-width="0.5"/>
<text class="ts" x="570" y="273" text-anchor="middle" dominant-baseline="central">Normalizer</text>

<!-- Arrows to UFS -->
<line x1="110" y1="291" x2="200" y2="345" class="arr" marker-end="url(#arrow)"/>
<line x1="340" y1="291" x2="340" y2="345" class="arr" marker-end="url(#arrow)"/>
<line x1="570" y1="291" x2="480" y2="345" class="arr" marker-end="url(#arrow)"/>

<!-- Unified Finding Schema -->
<rect x="170" y="348" width="340" height="56" rx="8" fill="#EEEDFE" stroke="#534AB7" stroke-width="0.5"/>
<text x="340" y="368" text-anchor="middle" dominant-baseline="central" font-size="14" font-weight="500" fill="#3C3489">Unified Finding Schema</text>
<text x="340" y="386" text-anchor="middle" dominant-baseline="central" font-size="12" fill="#534AB7">Normalisierte Findings aller Quellen</text>

<!-- Arrow to Prompt -->
<line x1="340" y1="404" x2="340" y2="448" class="arr" marker-end="url(#arrow)"/>

<!-- Combined Prompt + LLM -->
<rect x="170" y="451" width="340" height="56" rx="8" fill="#FAEEDA" stroke="#854F0B" stroke-width="0.5"/>
<text x="340" y="471" text-anchor="middle" dominant-baseline="central" font-size="14" font-weight="500" fill="#633806">Kombinierter Prompt</text>
<text x="340" y="489" text-anchor="middle" dominant-baseline="central" font-size="12" fill="#854F0B">qwen2.5-coder:7b via Ollama</text>

<!-- Arrow to output -->
<line x1="340" y1="507" x2="340" y2="551" class="arr" marker-end="url(#arrow)"/>

<!-- Output -->
<rect x="190" y="554" width="300" height="44" rx="8" fill="#EAF3DE" stroke="#3B6D11" stroke-width="0.5"/>
<text x="340" y="576" text-anchor="middle" dominant-baseline="central" font-size="14" font-weight="500" fill="#27500A">Priorisierte To-Do-Liste</text>

<!-- Side label -->
<text class="ts" x="40" y="490" text-anchor="start" opacity="0.6">100% lokal</text>
<text class="ts" x="40" y="506" text-anchor="start" opacity="0.6">(Datenschutz)</text>
</svg>